<svg width="19" height="17" viewBox="0 0 19 17" fill="none" xmlns="http://www.w3.org/2000/svg">
<path d="M18.9636 3.50964L12.2993 10.0145C11.5563 10.738 10.5495 11.1443 9.5 11.1443C8.45045 11.1443 7.44375 10.738 6.70067 10.0145L0.0364167 3.50964C0.0253333 3.63174 0 3.74224 0 3.86355V13.1363C0.00125705 14.1607 0.418698 15.1427 1.16076 15.867C1.90282 16.5913 2.9089 16.9988 3.95833 17H15.0417C16.0911 16.9988 17.0972 16.5913 17.8392 15.867C18.5813 15.1427 18.9987 14.1607 19 13.1363V3.86355C19 3.74224 18.9747 3.63174 18.9636 3.50964Z" fill="#252525"/>
<path d="M11.1808 8.92196L18.4118 1.86306C18.0616 1.29612 17.5675 0.826852 16.9773 0.500522C16.3872 0.174192 15.7208 0.00180871 15.0425 0H3.95918C3.28089 0.00180871 2.61453 0.174192 2.02436 0.500522C1.4342 0.826852 0.940139 1.29612 0.589844 1.86306L7.82093 8.92196C8.26709 9.3557 8.87114 9.59923 9.50084 9.59923C10.1305 9.59923 10.7346 9.3557 11.1808 8.92196Z" fill="#252525"/>
</svg>
