<?xml version="1.0" encoding="utf-8"?>
<!-- Generator: Adobe Illustrator 25.2.1, SVG Export Plug-In . SVG Version: 6.00 Build 0)  -->
<svg version="1.1" id="Layer_1" xmlns="http://www.w3.org/2000/svg" xmlns:xlink="http://www.w3.org/1999/xlink" x="0px" y="0px"
	 viewBox="0 0 24 24" style="enable-background:new 0 0 24 24;" xml:space="preserve">
<style type="text/css">
	.st0{clip-path:url(#SVGID_2_);}
	.st1{fill:#2F9C43;}
</style>
<g>
	<defs>
		<rect id="SVGID_1_" width="24" height="24"/>
	</defs>
	<clipPath id="SVGID_2_">
		<use xlink:href="#SVGID_1_"  style="overflow:visible;"/>
	</clipPath>
	<g class="st0">
		<path class="st1" d="M16.7,2.9L4.5,15.1c-0.5,0.5-0.8,1-1.1,1.6S3,18,3,18.7V20c0,0.3,0.1,0.5,0.3,0.7C3.5,20.9,3.7,21,4,21h1.3
			c0.7,0,1.3-0.1,1.9-0.4c0.6-0.3,1.2-0.6,1.6-1.1L21.1,7.3C21.7,6.8,22,6,22,5.1c0-0.8-0.3-1.6-0.9-2.2C20.5,2.4,19.7,2,18.9,2
			C18,2,17.3,2.4,16.7,2.9z M19.7,5.9L7.5,18.1C6.9,18.7,6.1,19,5.3,19H5v-0.3c0-0.8,0.3-1.6,0.9-2.1L18.1,4.3
			C18.3,4.1,18.6,4,18.9,4c0.3,0,0.6,0.1,0.8,0.3C19.9,4.6,20,4.8,20,5.1C20,5.4,19.9,5.7,19.7,5.9z"/>
	</g>
</g>
</svg>
