<svg width="17" height="17" viewBox="0 0 17 17" fill="none" xmlns="http://www.w3.org/2000/svg">
<path d="M16.2634 7.79121C16.0756 7.79121 15.8955 7.7166 15.7627 7.58379C15.6299 7.45098 15.5553 7.27086 15.5553 7.08304C15.5538 5.58093 14.9564 4.14078 13.8942 3.07863C12.8321 2.01648 11.3919 1.4191 9.88982 1.4176C9.702 1.4176 9.52187 1.34299 9.38906 1.21018C9.25625 1.07737 9.18164 0.897246 9.18164 0.709425C9.18164 0.521604 9.25625 0.341476 9.38906 0.208667C9.52187 0.0758577 9.702 0.00124616 9.88982 0.00124616C11.7674 0.00330809 13.5675 0.750085 14.8951 2.07773C16.2228 3.40538 16.9695 5.20546 16.9716 7.08304C16.9716 7.27086 16.897 7.45098 16.7642 7.58379C16.6314 7.7166 16.4513 7.79121 16.2634 7.79121ZM14.1389 7.08304C14.1389 5.95611 13.6912 4.87534 12.8944 4.07849C12.0975 3.28163 11.0167 2.83396 9.88982 2.83396C9.702 2.83396 9.52187 2.90857 9.38906 3.04138C9.25625 3.17419 9.18164 3.35432 9.18164 3.54214C9.18164 3.72996 9.25625 3.91009 9.38906 4.0429C9.52187 4.17571 9.702 4.25032 9.88982 4.25032C10.6411 4.25032 11.3616 4.54877 11.8929 5.08C12.4241 5.61124 12.7225 6.33175 12.7225 7.08304C12.7225 7.27086 12.7971 7.45098 12.93 7.58379C13.0628 7.7166 13.2429 7.79121 13.4307 7.79121C13.6185 7.79121 13.7987 7.7166 13.9315 7.58379C14.0643 7.45098 14.1389 7.27086 14.1389 7.08304ZM15.6848 15.6973L16.3293 14.9544C16.7395 14.5429 16.9698 13.9856 16.9698 13.4046C16.9698 12.8236 16.7395 12.2663 16.3293 11.8547C16.3073 11.8328 14.6035 10.522 14.6035 10.522C14.1945 10.1327 13.6513 9.91594 13.0868 9.91673C12.5222 9.91752 11.9796 10.1358 11.5717 10.5262L10.222 11.6635C9.12015 11.2075 8.11929 10.5384 7.27684 9.69446C6.43439 8.85055 5.76695 7.84853 5.31286 6.74594L6.44594 5.4004C6.83666 4.99261 7.05519 4.44994 7.05611 3.88518C7.05704 3.32043 6.84028 2.77704 6.4509 2.36798C6.4509 2.36798 5.13865 0.666226 5.11669 0.644273C4.71264 0.2376 4.16482 0.006219 3.59158 0.000123541C3.01834 -0.00597192 2.46572 0.213707 2.05311 0.611696L1.2387 1.31988C-3.57266 6.90174 6.78799 17.1824 12.554 16.9975C13.1362 17.0009 13.7133 16.8876 14.251 16.6643C14.7887 16.441 15.2763 16.1122 15.6848 15.6973Z" fill="#252525"/>
</svg>
