<?xml version="1.0" encoding="utf-8"?>
<!-- Generator: Adobe Illustrator 25.2.1, SVG Export Plug-In . SVG Version: 6.00 Build 0)  -->
<svg version="1.1" id="Layer_1" xmlns="http://www.w3.org/2000/svg" xmlns:xlink="http://www.w3.org/1999/xlink" x="0px" y="0px"
	 viewBox="0 0 20 20" style="enable-background:new 0 0 20 20;" xml:space="preserve">
<style type="text/css">
	.st0{fill:#2F9C43;}
</style>
<path class="st0" d="M16.8,14.9c-0.4-0.9-0.9-1.7-1.6-2.3c-0.7-0.7-1.5-1.2-2.3-1.6c0,0,0,0,0,0c1.2-0.9,2-2.3,2-3.9
	c0-2.7-2.2-4.8-4.8-4.8c-2.7,0-4.8,2.2-4.8,4.8c0,1.6,0.8,3,2,3.9c0,0,0,0,0,0c-0.9,0.4-1.7,0.9-2.3,1.6c-0.7,0.7-1.2,1.5-1.6,2.3
	c-0.4,0.9-0.6,1.8-0.6,2.7c0,0,0,0,0,0.1c0,0,0,0,0,0.1s0,0,0.1,0c0,0,0,0,0.1,0H4c0.1,0,0.2-0.1,0.2-0.2c0-1.5,0.6-2.9,1.7-4
	c1.1-1.1,2.6-1.7,4.1-1.7c1.6,0,3,0.6,4.1,1.7c1.1,1.1,1.7,2.5,1.7,4c0,0.1,0.1,0.2,0.2,0.2h1.2c0,0,0,0,0.1,0c0,0,0,0,0.1,0
	c0,0,0,0,0-0.1c0,0,0,0,0-0.1C17.3,16.7,17.1,15.8,16.8,14.9z M10,10.4c-0.9,0-1.7-0.3-2.4-1C7,8.8,6.6,8,6.6,7.1
	c0-0.9,0.3-1.7,1-2.4c0.6-0.6,1.5-1,2.4-1c0.9,0,1.7,0.3,2.4,1c0.6,0.6,1,1.5,1,2.4c0,0.9-0.3,1.7-1,2.4
	C11.7,10.1,10.9,10.4,10,10.4z"/>
</svg>
